<?xml version="1.0" encoding="utf-8"?>
<!-- Generator: Adobe Illustrator 22.0.1, SVG Export Plug-In . SVG Version: 6.00 Build 0)  -->
<svg version="1.1" xmlns="http://www.w3.org/2000/svg" xmlns:xlink="http://www.w3.org/1999/xlink" x="0px" y="0px"
	 viewBox="0 0 295.8 207" style="enable-background:new 0 0 295.8 207;" xml:space="preserve">
<style type="text/css">
	.st0{fill:url(#SVGID_1_);}
	.st1{fill:url(#SVGID_2_);}
	.st2{fill:url(#SVGID_3_);}
	.st3{fill:url(#SVGID_4_);}
	.st4{fill:url(#SVGID_5_);}
	.st5{fill:url(#SVGID_6_);}
	.st6{fill:url(#SVGID_7_);}
	.st7{fill:url(#SVGID_8_);}
	.st8{fill:url(#SVGID_9_);}
	.st9{fill:url(#SVGID_10_);}
	.st10{fill:url(#SVGID_11_);}
	.st11{fill:url(#SVGID_12_);}
	.st12{fill:none;}
	.st13{font-family:'LucidaHandwriting-Italic';}
	.st14{font-size:48px;}
	.st15{fill:#FFFFFF;}
</style>
<g id="Background">
</g>
<g id="Images">
</g>
<g id="Objects">
	<g>
		<g>
			<linearGradient id="SVGID_1_" gradientUnits="userSpaceOnUse" x1="201.0557" y1="72.3699" x2="188.0746" y2="46.5112">
				<stop  offset="0" style="stop-color:#FFFFFF"/>
				<stop  offset="1" style="stop-color:#000000"/>
			</linearGradient>
			<path class="st0" d="M171.1,76.2c9.5,0.6,18.8-1.1,27.9-3.4c6.7-1.7,13.7-4,18.5-9.3c8.7-9.7,4.3-25.2-9.8-25.6
				c-5.9-0.1-12.9,2.9-15.1,8.7c-2,5.1,1.1,10.5,6,12.4c4.2,1.6,9.7-0.2,10.7-5.1c1-4.6-3.4-8-7.6-7c-1.9,0.5-1.1,3.4,0.8,2.9
				c1.8,6.2,0.6,8.2-3.6,6c-0.6-0.5-1.3-0.9-1.9-1.4c-2.2-2.2-2.5-5.3-1-8c2.4-4.1,8.1-6,12.5-5.6c11.4,1,13.3,13.6,6.3,21
				c-4.9,5.2-12.4,7-19.1,8.6c-8.1,1.9-16.3,3.2-24.7,2.7C169.1,73,169.1,76,171.1,76.2L171.1,76.2z"/>
		</g>
	</g>
	<g>
		<g>
			<linearGradient id="SVGID_2_" gradientUnits="userSpaceOnUse" x1="249.7439" y1="70.5575" x2="230.8409" y2="32.9021">
				<stop  offset="0" style="stop-color:#FFFFFF"/>
				<stop  offset="1" style="stop-color:#000000"/>
			</linearGradient>
			<path class="st1" d="M222.8,74.6c13.5-0.1,31.5-0.3,40.6-12.3c7.9-10.5,1.7-27.6-9.3-33.3c-9.8-5.1-24.4-0.6-25.2,11.8
				c-0.7,10.4,11,18.6,19.9,11.6c3.5-2.8,5.4-8.4,2.5-12.3c-2.7-3.8-8.7-3.4-10.6,0.8c-0.8,1.7,1.8,3.3,2.6,1.5c1-0.7,2-1.3,2.9-2
				c1.1,1.4,2.3,2.8,3.4,4.2c0.3,1.4-1,3.7-1.8,4.7c-1.6,1.8-4.2,2.8-6.6,2.8c-5.6,0.1-9.5-5.2-9.4-10.5c0.1-5.7,5-10.3,10.3-11.5
				c6.3-1.4,12.8,1.9,16.6,6.8c3.2,4.1,5.2,9.6,5,14.8c-0.2,6.5-4,11.1-9.5,14.3c-9.5,5.5-20.9,5.6-31.6,5.6
				C220.8,71.6,220.8,74.6,222.8,74.6L222.8,74.6z"/>
		</g>
	</g>
	<g>
		<g>
			<linearGradient id="SVGID_3_" gradientUnits="userSpaceOnUse" x1="283.8767" y1="67.8277" x2="254.2856" y2="8.8813">
				<stop  offset="0" style="stop-color:#FFFFFF"/>
				<stop  offset="1" style="stop-color:#000000"/>
			</linearGradient>
			<path class="st2" d="M263.1,76.2c30,1,31.9-41.8,20.3-60.6c-3.1-5-7.8-9.1-13.5-10.7c-4.8-1.3-11.1-1-14.2,3.4
				c-5.6,8.1,4.6,20.8,13.8,17.6c4.2-1.5,5-6.4,2.5-9.7c-2-2.7-7.6-3.9-8.3,0.5c-0.3,1.9,2.6,2.7,2.9,0.8c5,1,5.1,3,0.1,5.8
				c-1.5-0.1-3-0.6-4.3-1.4c-2.8-1.6-5.3-4.4-5.3-7.8c-0.2-7,7.7-7.8,12.8-6.1c10.1,3.3,14.3,14.2,16.1,23.7
				c3.1,16.4-0.9,42.2-22.8,41.5C261.2,73.1,261.2,76.1,263.1,76.2L263.1,76.2z"/>
		</g>
	</g>
	<g>
		<g>
			<linearGradient id="SVGID_4_" gradientUnits="userSpaceOnUse" x1="99.6023" y1="81.3017" x2="77.7177" y2="37.7069">
				<stop  offset="0" style="stop-color:#FFFFFF"/>
				<stop  offset="1" style="stop-color:#000000"/>
			</linearGradient>
			<path class="st3" d="M113.8,72.2c-7.4,0.5-14.6-0.7-21.7-2.4c-6.8-1.7-14.2-3.6-18.8-9.2c-4.9-5.9-5.5-15.6,2.4-19.5
				c3.7-1.8,8.2-1.3,11.6,0.9c2,1.3,4.7,4.3,4.4,6.9c-0.6,1.6-1.2,3.1-1.9,4.7c-3.7,3.8-5.4,2.3-5-4.6c1.9,0.5,2.7-2.4,0.8-2.9
				c-4.3-1-8,2.6-7.2,7c1,5,6.5,6.9,10.8,4.8c4.6-2.3,6.6-7.8,4.7-12.4c-2.3-5.6-8.8-8.8-14.7-8.3c-13.1,1-15.7,16.3-8.6,25.3
				c4.3,5.3,10.8,7.8,17.2,9.5c8.4,2.3,17.1,4,25.8,3.4C115.7,75,115.7,72,113.8,72.2L113.8,72.2z"/>
		</g>
	</g>
	<g>
		<g>
			<linearGradient id="SVGID_5_" gradientUnits="userSpaceOnUse" x1="58.2398" y1="76.5551" x2="34.9713" y2="30.2035">
				<stop  offset="0" style="stop-color:#FFFFFF"/>
				<stop  offset="1" style="stop-color:#000000"/>
			</linearGradient>
			<path class="st4" d="M66.2,70.6c-10.1-0.1-21-0.2-29.7-6.1c-9.8-6.7-10-19.6-3.4-28.8c6.2-8.6,21.6-10.2,24.4,2.5
				c1.1,4.9-1.3,11.4-6.6,12.6c-2.7,0.6-5.7-0.4-7.5-2.5c-1.2-1.4-1.8-3-1.8-4.8c1.2-4.5,3-5.4,5.5-2.5c0.7,1.8,3.6,1,2.9-0.8
				c-1.3-3.2-4.8-5-8.1-3.2c-3.7,2.1-4,7.5-2.3,11c4.9,9.9,18,6.2,20.6-3.2c3-10.8-6.9-20.9-17.7-18.8C30.2,28.4,23.4,43.6,26,55.1
				c3.9,17.1,26.3,18.4,40.2,18.5C68.1,73.6,68.1,70.6,66.2,70.6L66.2,70.6z"/>
		</g>
	</g>
	<g>
		<g>
			<linearGradient id="SVGID_6_" gradientUnits="userSpaceOnUse" x1="39.5035" y1="68.9557" x2="10.3604" y2="10.9017">
				<stop  offset="0" style="stop-color:#FFFFFF"/>
				<stop  offset="1" style="stop-color:#000000"/>
			</linearGradient>
			<path class="st5" d="M29,72.2C7.6,72.9,5.5,45,8.3,29.9C9.8,21.6,12.8,12.4,20.6,8c4.3-2.4,12.1-3.3,13.6,2.9
				c0.8,3.1-0.5,6.3-2.7,8.5c-1.2,1.1-2.5,2-4.1,2.5c-6.1-2.1-6.7-3.9-1.7-5.5c0.3,1.9,3.2,1.1,2.9-0.8c-1.1-7-13.6,0.8-8,7.5
				c3.1,3.7,8.6,1.9,11.8-0.6c3.7-2.9,5.9-7.7,4.7-12.4c-3-11.5-17.9-6.5-23.5-0.3C4.9,19.6,2.9,36.5,4.5,49
				C6,61.8,14.6,75.7,29,75.2C30.9,75.1,30.9,72.1,29,72.2L29,72.2z"/>
		</g>
	</g>
	<g>
		<g>
			<linearGradient id="SVGID_7_" gradientUnits="userSpaceOnUse" x1="213.2399" y1="170.4198" x2="190.754" y2="125.6272">
				<stop  offset="0" style="stop-color:#FFFFFF"/>
				<stop  offset="1" style="stop-color:#000000"/>
			</linearGradient>
			<path class="st6" d="M175.1,135.5c8.1-0.5,15.9,0.7,23.7,2.5c6.8,1.5,14.3,3.2,19.5,8.2c6.5,6.2,6.9,17.6-2.9,20.8
				c-4.2,1.4-9.2,0.5-12.7-2.2c-3-2.3-4.4-4.8-2.8-8.4c0.3-1.8,1.3-3,2.9-3.7c4.2-2.2,5.4-0.2,3.6,6c-1.9-0.5-2.7,2.4-0.8,2.9
				c4.3,1.1,8.6-2.3,7.6-6.9c-1-4.8-6.5-6.7-10.7-5.1c-5.1,1.9-8.1,7.5-5.9,12.7c2.5,5.9,9.8,8.7,15.8,8.3c13.5-1,17.3-16.1,9-25.4
				c-4.7-5.3-11.8-7.5-18.5-9.2c-9.1-2.3-18.4-4-27.9-3.4C173.1,132.7,173.1,135.7,175.1,135.5L175.1,135.5z"/>
		</g>
	</g>
	<g>
		<g>
			<linearGradient id="SVGID_8_" gradientUnits="userSpaceOnUse" x1="259.9148" y1="177.456" x2="236.2611" y2="130.3372">
				<stop  offset="0" style="stop-color:#FFFFFF"/>
				<stop  offset="1" style="stop-color:#000000"/>
			</linearGradient>
			<path class="st7" d="M226.8,137.1c10.4,0.1,21.4,0.1,30.8,5.2c5.4,2.9,9.8,7.4,10.2,13.9c0.4,5.5-1.6,11.3-5,15.6
				c-6.8,8.6-25,10.4-26.8-3.6c-0.7-5.3,2.7-10.9,8.3-11.5c2.4-0.2,4.9,0.4,6.8,2c1.2,1,2.3,2.6,2.4,4.2c0.2,2.2-3.9,8.3-6.2,3.2
				c-0.8-1.8-3.4-0.2-2.6,1.5c1.6,3.5,6.3,4.6,9.4,2.2c3.4-2.7,3.1-8,0.9-11.3c-6.1-8.9-19.2-4.6-21.7,4.9c-3,11.7,9.3,20.3,20,17.9
				c12.5-2.8,20.7-18.2,16.6-30.3c-5.6-16.3-29.1-16.8-43-16.9C224.8,134.1,224.8,137.1,226.8,137.1L226.8,137.1z"/>
		</g>
	</g>
	<g>
		<g>
			<linearGradient id="SVGID_9_" gradientUnits="userSpaceOnUse" x1="286.3082" y1="196.5183" x2="257.1639" y2="138.4619">
				<stop  offset="0" style="stop-color:#FFFFFF"/>
				<stop  offset="1" style="stop-color:#000000"/>
			</linearGradient>
			<path class="st8" d="M267.1,135.5c8.7-0.3,16.3,5.1,20.3,12.6c4.7,8.9,4.3,19.9,2.3,29.4c-1.9,9.3-6.1,19.6-15.9,22.8
				c-5,1.6-13,1-12.8-6.1c0.1-3.4,2.6-6.2,5.3-7.7c1.3-0.8,2.7-1.3,4.3-1.4c4.9,2.8,4.9,4.8-0.1,5.8c-0.3-1.9-3.2-1.1-2.9,0.8
				c1.3,7.3,15.1-1.3,8-7.9c-7.3-6.7-19.1,4.8-17.4,12.7c2.7,12.8,20,6.8,26,0.3c8.8-9.5,11.1-26.3,9.4-38.6
				c-1.9-13.5-11.9-26.3-26.5-25.8C265.2,132.6,265.2,135.6,267.1,135.5L267.1,135.5z"/>
		</g>
	</g>
	<g>
		<g>
			<linearGradient id="SVGID_10_" gradientUnits="userSpaceOnUse" x1="106.4444" y1="163.2165" x2="93.8811" y2="138.19">
				<stop  offset="0" style="stop-color:#FFFFFF"/>
				<stop  offset="1" style="stop-color:#000000"/>
			</linearGradient>
			<path class="st9" d="M123.1,134.5c-8.7-0.6-17.2,0.9-25.6,2.9c-7,1.7-14.5,3.8-19.5,9.3c-8.2,9.1-4.5,23.8,8.7,24.8
				c5.9,0.4,12.9-2.4,15.4-8.1c2.1-4.9-0.6-10.2-5.3-12.2c-4.3-1.8-10.2,0-10.9,5.2c-0.6,4.4,3.5,7.4,7.5,6.4
				c1.9-0.5,1.1-3.4-0.8-2.9c-0.4-5.9,0.8-7.7,3.6-5.3c2.3,0.9,3.5,2.7,3.7,5.4c-0.1,2.8-2.5,5.3-4.7,6.6c-3.7,2.2-8.5,2.6-12.4,0.8
				c-8.6-3.8-7.6-13.8-1.7-19.6c5-4.8,12.4-6.5,18.9-7.9c7.6-1.7,15.2-2.9,23.1-2.4C125,137.6,125,134.6,123.1,134.5L123.1,134.5z"
				/>
		</g>
	</g>
	<g>
		<g>
			<linearGradient id="SVGID_11_" gradientUnits="userSpaceOnUse" x1="64.8413" y1="176.3786" x2="46.5521" y2="139.9459">
				<stop  offset="0" style="stop-color:#FFFFFF"/>
				<stop  offset="1" style="stop-color:#000000"/>
			</linearGradient>
			<path class="st10" d="M72.8,136.1c-13.1,0.1-30.6,0.3-39.5,11.9c-7.5,9.9-1.9,26.1,8.3,31.9c9.4,5.3,23.8,1.5,25.2-10.5
				c1.2-10.3-10.3-18.7-19.1-12c-3.6,2.7-5.6,8.4-2.6,12.3c2.7,3.5,8.4,3.1,10.3-1c0.8-1.7-1.8-3.3-2.6-1.5c-2.6,3.1-4.6,2.4-6.1-2
				c0-1.8,0.6-3.3,1.9-4.6c1.8-1.9,4.6-2.7,7.1-2.5c5.8,0.5,9.2,6.8,7.9,12.2c-3.2,13.3-20.6,10.1-26.7,1.3c-2.8-4-4.4-9.2-4-14
				c0.4-6.3,4.6-10.5,9.9-13.4c9.1-5,19.9-5,30-5C74.7,139,74.7,136,72.8,136.1L72.8,136.1z"/>
		</g>
	</g>
	<g>
		<g>
			<linearGradient id="SVGID_12_" gradientUnits="userSpaceOnUse" x1="42.0031" y1="199.5987" x2="13.3955" y2="142.6116">
				<stop  offset="0" style="stop-color:#FFFFFF"/>
				<stop  offset="1" style="stop-color:#000000"/>
			</linearGradient>
			<path class="st11" d="M33.5,134.5C4,133.6,2,176.3,14.7,194.4c4.9,7,19.4,15.3,26.1,5.7c5.5-7.9-4.1-19.4-12.9-17.2
				c-4.3,1.1-5.7,6-3.1,9.5c2,2.6,7.5,4,8.2-0.4c0.3-1.9-2.6-2.7-2.9-0.8c-1.9-4.8-1.2-6.5,2-5.2c1.5,0.5,2.9,1.3,4.1,2.4
				c2.1,1.8,3.4,4.3,3,7.1c-0.9,7.1-9.9,6.2-14.7,3.8c-8-4.1-11.4-12.8-13-21.1c-3.2-16,0.4-41.5,22-40.8
				C35.5,137.5,35.5,134.5,33.5,134.5L33.5,134.5z"/>
		</g>
	</g>
</g>
<g id="Text">
	<rect x="4.3" y="78" class="st12" width="283.5" height="49.3"/>
	<text transform="matrix(1 0 0 1 4.267 119.0121)" class="st13 st14">ART DEPO</text>
	<rect x="7.3" y="79" class="st12" width="275.5" height="54.7"/>
	<text transform="matrix(1 0 0 1 7.267 120.0121)" class="st15 st13 st14">ART DEPO</text>
</g>
</svg>
