<?xml version="1.0" encoding="utf-8"?>
<!-- Generator: Adobe Illustrator 23.0.3, SVG Export Plug-In . SVG Version: 6.00 Build 0)  -->
<svg version="1.1" id="Layer_1" xmlns="http://www.w3.org/2000/svg" xmlns:xlink="http://www.w3.org/1999/xlink" x="0px" y="0px"
	 viewBox="0 0 1366 768" style="enable-background:new 0 0 1366 768;" xml:space="preserve">
<style type="text/css">
	.st0{fill:#0284CC;}
	.st1{fill:#FF0000;}
</style>
<g>
	<g>
		<path class="st0" d="M632.8,418.7C353.6,551.4,126.1,636.1,113.7,610.6c-7.6-15.7,70.6-69.1,194.6-140.4c-3.4-6.7-5-19.2-8.6-25.8
			C116.1,552.9-2.2,648,13.3,680.1c20.9,43.1,268.1-32.7,577.6-172.8L632.8,418.7z"/>
	</g>
	<g>
		<path class="st0" d="M1353.8,28.7c-17-35-191.3,12.5-419.6,105.5c3,7.8,13.5,11.6,16.9,19.3c149.5-61.7,252.1-93.2,260.3-76.3
			c12.3,25.4-193.6,151.3-469.3,288.4l-66.3,107.5c14.5-6.9,36.4-22.4,51.1-29.5C1097.1,263.6,1377.8,77.9,1353.8,28.7z"/>
	</g>
</g>
<g>
	<g>
		<path class="st1" d="M721.7,654c-52.4,0-101.8-12.6-145.3-35c34-21.4,66.7-44.3,99.6-66.6c34.3-23.4,68.7-46.3,104-67.6
			c35.3-21.2,71.5-40.7,109-57.5c37.5-16.9,76.4-30.8,116.9-41.9l-0.3-2c-42.2,1.6-84.1,11.1-124.1,25.2
			c-40.1,14.2-78.3,33-114.6,54.8c-36.2,21.8-70.4,46.5-103.1,72.9c-30.5,24.8-59.7,50.9-87.6,78.5c5.4-9,10.6-18.1,15.7-27.2
			c3.3-5.6,6.5-11.3,9.8-16.9l9.5-17l9.7-16.8l9.5-16.9c6.5-11.2,13.1-22.3,19.4-33.5c26-44.5,52.4-88.6,80-132
			c27.5-43.4,56.2-86.1,85.9-128.3c7.5-10.5,15-21,22.3-31.7c7.7-10.4,15.2-21,22.7-31.6c6.6-9,13.2-18,19.7-27.1
			c3.6-3.9,7-8,10.4-12.1c6-7.6,11.6-15.7,15.8-24.4l0,0L905,98c-10.3,8.2-20.4,16.6-30.4,25.2c-1.3,1.1-2.5,2.3-3.8,3.5
			c-3.2,2.3-6.3,4.5-9.6,6.7c-15.5,10.5-31.4,20.4-47.4,30c-32.2,19-65.2,36.6-98.7,53c-8.4,4-16.8,8.2-25.2,12
			c-8.5,3.8-16.9,7.8-25.4,11.5c-17,7.6-34.1,14.7-51.3,21.6c-17.2,6.8-34.6,13.2-52.3,18.8c-17.7,5.5-35.7,10.1-54.8,13l-0.1,2
			c9.4,2.7,19.2,4,29.1,4.7c9.8,0.6,19.7,0.4,29.5-0.4c19.6-1.6,38.9-5.4,57.8-10.4c37.8-10.1,73.5-25.6,107.7-43.5
			c19.7-10.3,38.9-21.5,57.5-33.7c-33.1,38.3-63.5,79-90.9,121.6c-28.6,44.2-54,90.5-75.4,138.5c-5.3,12-10.3,24.2-15.4,36.3
			l-7,18.4l-6.7,18.5l-6.1,18.7c-2,6.3-4,12.5-5.8,18.8c-3.1,11.2-6.1,22.4-8.7,33.7c-26.8-14.4-51.4-32.5-72.9-53.7
			c-35.5,15.2-70.1,29.5-103.8,43c65.8,78.7,164.7,128.8,275.4,128.8c176.9,0,323.9-128,353.5-296.4
			C980.8,563.6,861.8,654,721.7,654z"/>
	</g>
	<g>
		<path class="st1" d="M403,335.2c0-167.6,129.3-305,293.7-317.8c-8.8-0.6-17.6-1-26.6-1c-198.3,0-359,160.7-359,359
			c0,56.2,12.9,109.3,35.9,156.6c30.9-12.8,63.2-26.5,96.6-41.1C417.7,445,403,391.8,403,335.2z"/>
	</g>
</g>
</svg>
